<?xml version="1.0" encoding="UTF-8"?>
<svg width="18px" height="18px" viewBox="0 0 18 18" version="1.1" xmlns="http://www.w3.org/2000/svg" xmlns:xlink="http://www.w3.org/1999/xlink">
    <title>message</title>
    <g id="2首页" stroke="none" stroke-width="1" fill="none" fill-rule="evenodd" opacity="0.65">
        <g id="2指标墙_前置机_客服弹窗" transform="translate(-1301.000000, -23.000000)" fill="#000000" fill-rule="nonzero">
            <g id="横条" transform="translate(240.000000, 0.000000)">
                <g id="Group-20" transform="translate(25.000000, 20.000000)">
                    <g id="消息" transform="translate(1036.000000, 3.000000)">
                        <path d="M14.9047619,13.9464286 L14.4583333,13.9464286 L14.4583333,7.62202381 C14.4583333,4.99739583 12.5182292,2.82849702 9.99404762,2.46763393 L9.99404762,1.74404762 C9.99404762,1.33296131 9.66108631,1 9.25,1 C8.83891369,1 8.50595238,1.33296131 8.50595238,1.74404762 L8.50595238,2.46763393 C5.98177083,2.82849702 4.04166667,4.99739583 4.04166667,7.62202381 L4.04166667,13.9464286 L3.5952381,13.9464286 C3.26599702,13.9464286 3,14.2124256 3,14.5416667 L3,15.1369048 C3,15.21875 3.06696429,15.2857143 3.14880952,15.2857143 L7.16666667,15.2857143 C7.16666667,16.4352679 8.10044643,17.3690476 9.25,17.3690476 C10.3995536,17.3690476 11.3333333,16.4352679 11.3333333,15.2857143 L15.3511905,15.2857143 C15.4330357,15.2857143 15.5,15.21875 15.5,15.1369048 L15.5,14.5416667 C15.5,14.2124256 15.234003,13.9464286 14.9047619,13.9464286 Z M9.25,16.1785714 C8.75706845,16.1785714 8.35714286,15.7786458 8.35714286,15.2857143 L10.1428571,15.2857143 C10.1428571,15.7786458 9.74293155,16.1785714 9.25,16.1785714 Z M5.38095238,13.9464286 L5.38095238,7.62202381 C5.38095238,6.58779762 5.7827381,5.61681548 6.51376488,4.88578869 C7.24479167,4.1547619 8.21577381,3.75297619 9.25,3.75297619 C10.2842262,3.75297619 11.2552083,4.1547619 11.9862351,4.88578869 C12.7172619,5.61681548 13.1190476,6.58779762 13.1190476,7.62202381 L13.1190476,13.9464286 L5.38095238,13.9464286 Z" id="fill"></path>
                    </g>
                </g>
            </g>
        </g>
    </g>
</svg>