<?xml version="1.0" encoding="UTF-8"?>
<svg width="18px" height="18px" viewBox="0 0 18 18" version="1.1" xmlns="http://www.w3.org/2000/svg" xmlns:xlink="http://www.w3.org/1999/xlink">
    <title>search</title>
    <g id="2首页" stroke="none" stroke-width="1" fill="none" fill-rule="evenodd" fill-opacity="0.65">
        <g id="2指标墙_前置机_客服弹窗" transform="translate(-1261.000000, -23.000000)" fill="#000000" fill-rule="nonzero">
            <g id="横条" transform="translate(240.000000, 0.000000)">
                <g id="Group-20" transform="translate(25.000000, 20.000000)">
                    <g id="搜索" transform="translate(996.000000, 3.000000)">
                        <path d="M15.8359375,15.0390625 L12.621875,11.8265625 C13.4828125,10.7875 14,9.4546875 14,8 C14,4.6859375 11.3140625,2 8,2 C4.6859375,2 2,4.6859375 2,8 C2,11.3140625 4.6859375,14 8,14 C9.4546875,14 10.7875,13.4828125 11.8265625,12.621875 L15.040625,15.8359375 C15.15,15.9453125 15.29375,16 15.4390625,16 C15.584375,16 15.7265625,15.9453125 15.8375,15.8359375 C16.0546875,15.615625 16.0546875,15.259375 15.8359375,15.0390625 Z M9.896875,12.4921875 C9.296875,12.746875 8.659375,12.875 8,12.875 C7.340625,12.875 6.703125,12.746875 6.103125,12.4921875 C5.5234375,12.246875 5.0015625,11.8953125 4.553125,11.446875 C4.1046875,10.9984375 3.753125,10.4765625 3.5078125,9.896875 C3.253125,9.296875 3.125,8.659375 3.125,8 C3.125,7.340625 3.253125,6.703125 3.5078125,6.103125 C3.753125,5.5234375 4.1046875,5.0015625 4.553125,4.553125 C5.0015625,4.1046875 5.5234375,3.753125 6.103125,3.5078125 C6.703125,3.253125 7.340625,3.125 8,3.125 C8.659375,3.125 9.296875,3.253125 9.896875,3.5078125 C10.4765625,3.753125 10.9984375,4.1046875 11.446875,4.553125 C11.8953125,5.0015625 12.246875,5.5234375 12.4921875,6.103125 C12.746875,6.703125 12.875,7.340625 12.875,8 C12.875,8.659375 12.746875,9.296875 12.4921875,9.896875 C12.246875,10.4765625 11.8953125,10.9984375 11.446875,11.446875 C10.9984375,11.8953125 10.478125,12.246875 9.896875,12.4921875 Z" id="Shape"></path>
                    </g>
                </g>
            </g>
        </g>
    </g>
</svg>