<?xml version="1.0" encoding="UTF-8"?>
<svg width="14px" height="14px" viewBox="0 0 14 14" version="1.1" xmlns="http://www.w3.org/2000/svg" xmlns:xlink="http://www.w3.org/1999/xlink">
    <title>内部金融</title>
    <g id="2首页" stroke="none" stroke-width="1"  fill-rule="evenodd">
        <g id="侧边栏icon组" transform="translate(-24.000000, -363.000000)"  fill-rule="nonzero">
            <g id="侧边栏">
                <g id="编组-1" transform="translate(0.000000, 79.000000)">
                    <path d="M32.2119735,284.398567 C31.2969133,283.673288 30.3457415,284.094811 29.9494923,284.433859 L24.5336419,288.14483 C24.2967144,288.302243 23.9144352,288.625009 24.0171552,289.017295 C24.0877147,289.286823 24.3376214,289.438389 24.7605995,289.468042 C24.7693705,289.468873 24.7779214,289.469081 24.7866924,289.469081 L26.0499875,289.470757 L26.0499875,295.085124 C26.0499875,295.880142 26.6644111,296.526506 27.4197581,296.526506 L31.1591215,296.526506 C31.2695727,296.526506 31.366641,296.477648 31.436173,296.402709 C31.5127879,296.332553 31.562686,296.234017 31.562686,296.121902 L31.562686,292.785467 L33.4009536,292.785467 C33.6109808,292.785467 33.7815446,292.614071 33.7815446,292.402992 C33.7815446,292.191912 33.6109808,292.020309 33.4009536,292.020309 L31.562686,292.020309 L31.562686,291.176236 L33.4009536,291.176236 C33.6109808,291.176236 33.7815446,291.004828 33.7815446,290.793761 C33.7815446,290.582266 33.6109808,290.410871 33.4009536,290.410871 L32.0888001,290.410871 L33.4495917,288.953622 C33.5932308,288.79934 33.5852917,288.557569 33.4320497,288.412682 C33.2790157,288.268627 33.0376843,288.27615 32.8942532,288.430224 L31.1747919,290.272455 L29.5095837,288.417905 C29.3688683,288.261324 29.1283565,288.249005 28.9719829,288.390137 C28.8158295,288.531684 28.803511,288.773651 28.9442142,288.930441 L30.2734938,290.410871 L28.9636523,290.410871 C28.7536128,290.410871 28.5828411,290.582266 28.5828411,290.793761 C28.5828411,291.004828 28.7534171,291.176236 28.9636523,291.176236 L30.8016997,291.176236 L30.8016997,292.020309 L28.9636523,292.020309 C28.7536128,292.020309 28.5828411,292.191925 28.5828411,292.402992 C28.5828411,292.614059 28.7534171,292.785467 28.9636523,292.785467 L30.8016997,292.785467 L30.8016997,295.761556 L27.4195502,295.761556 C27.0838417,295.761556 26.8109617,295.457996 26.8109617,295.085124 L26.8109617,289.149031 C26.8109617,289.131905 26.8032549,289.117507 26.8011631,289.101017 C26.801579,289.097053 26.8036708,289.093702 26.8036708,289.08953 C26.8040868,288.878255 26.6339266,288.706847 26.4234835,288.706223 L25.0679153,288.70434 L30.3964592,285.053298 C30.4083741,285.045151 30.4217325,285.034496 30.4325831,285.025101 C30.4989835,284.968316 31.0971128,284.482497 31.7476602,285.005063 C31.7549633,285.010495 31.7620706,285.015706 31.7693737,285.021138 L36.8649414,288.554645 C36.9507432,288.617498 37.0426003,288.699752 37.1144198,288.774495 C37.0661976,288.776783 37.0081523,288.778459 36.9378007,288.776575 L35.7262754,288.781798 C35.7227278,288.781798 35.7200121,288.783682 35.7164646,288.783682 C35.7127091,288.783682 35.7099933,288.781798 35.7060299,288.781798 C35.4957947,288.781798 35.3254388,288.952998 35.3254388,289.164481 L35.3275184,295.084916 C35.3275184,295.457788 35.0542347,295.761348 34.7187342,295.761348 L30.6822168,295.761348 C30.4721773,295.761348 30.3018215,295.932328 30.3018215,296.143823 C30.3018215,296.35489 30.4721896,296.526298 30.6822168,296.526298 L34.7187342,296.526298 C35.4740812,296.526298 36.0887128,295.879726 36.0887128,295.084916 L36.087465,289.545072 L36.9315375,289.541525 C37.1712051,289.545709 37.8102659,289.560523 37.970395,289.085775 C38.1269765,288.621045 37.6267596,288.166335 37.3062934,287.930827 L32.2119735,284.398567 Z" id="内部金融"></path>
                </g>
            </g>
        </g>
    </g>
</svg>