<?xml version="1.0" encoding="UTF-8"?>
<svg width="14px" height="14px" viewBox="0 0 14 14" version="1.1" xmlns="http://www.w3.org/2000/svg" xmlns:xlink="http://www.w3.org/1999/xlink">
    <title>对账管理</title>
    <g id="2首页" stroke="none" stroke-width="1"  fill-rule="evenodd">
        <g id="侧边栏icon组" transform="translate(-24.000000, -738.000000)">
            <g id="侧边栏">
                
                <g id="编组2" transform="translate(23.000000, 464.000000)"  fill-rule="nonzero">
                    <path d="M12.400543,288 L2.59664076,288 L2.59664075,288 C1.71461367,287.999279 1.00000058,287.337054 1.00000058,286.520409 L1.00000058,276.499907 L1.00000058,276.499852 C0.999254472,275.682485 1.71389316,275.019117 2.59669883,275.017707 L3.23789123,275.017707 L3.23789121,275.017707 C3.49161316,275.017707 3.697295,275.208142 3.697295,275.443056 C3.69729501,275.67797 3.49161316,275.868406 3.23789121,275.868406 L2.59669881,275.868406 L2.59669884,275.868406 C2.22266349,275.869123 1.91964195,276.149683 1.91886688,276.495992 L1.91886688,286.516494 L1.91886686,286.516496 C1.91575193,286.864533 2.21795317,287.149008 2.59385397,287.151893 C2.59480315,287.1519 2.59575232,287.151906 2.59670154,287.151909 L12.4006038,287.151909 L12.4006038,287.151909 C12.775416,287.150472 13.0784393,286.868745 13.0784358,286.521714 L13.0784358,276.499907 L13.0784358,276.499907 C13.0776609,276.153598 12.7746392,275.873039 12.4006038,275.872321 L11.5860781,275.872321 L11.586078,275.872321 C11.3323561,275.872321 11.1266743,275.681886 11.1266743,275.446972 C11.1266743,275.212057 11.3323561,275.021622 11.586078,275.021622 L12.4006038,275.021622 L12.4006037,275.021622 C13.2831575,275.020933 13.9992214,275.682775 14.0000006,276.499907 L14.0000006,286.52041 L14.0000006,286.52041 C14.0000006,287.337566 13.2845297,288 12.4019513,288 C12.4014813,288 12.4010114,288 12.4005414,288 L12.400543,288 Z M8.63089538,275.87232 L6.30710139,275.87232 L6.30710137,275.87232 C6.05337942,275.87232 5.84769758,275.681885 5.84769758,275.446971 C5.84769758,275.212057 6.05337942,275.021622 6.30710137,275.021622 L8.63089536,275.021622 L8.63089534,275.021622 C8.88461729,275.021622 9.09029912,275.212057 9.09029912,275.446971 C9.09029912,275.681885 8.88461729,275.87232 8.63089534,275.87232 L8.63089538,275.87232 Z M4.72878163,276.948742 L4.72878163,276.948742 C4.47749234,276.945879 4.27563123,276.75607 4.27642392,276.523392 L4.27642392,274.478844 L4.27642389,274.478844 C4.26237718,274.24429 4.45635587,274.043604 4.70968852,274.030598 C4.96302117,274.017592 5.17977415,274.197192 5.19382225,274.431746 C5.1947617,274.447433 5.19476169,274.463156 5.19382223,274.478843 L5.19382223,276.523391 L5.19382223,276.523423 C5.19382223,276.758337 4.98814039,276.948772 4.73441844,276.948772 C4.73252791,276.948772 4.7306374,276.948772 4.72874701,276.94874 L4.72878163,276.948742 Z M10.0654753,276.950046 L10.0654753,276.950046 C9.81175333,276.950046 9.60607149,276.759611 9.60607149,276.524697 C9.60607149,276.524697 9.60607149,276.524697 9.60607149,276.524697 L9.60607149,274.425349 L9.60607149,274.425349 C9.60607149,274.190435 9.81175333,274 10.0654753,274 C10.3191972,274 10.5248791,274.190435 10.5248791,274.425349 L10.5248791,276.524697 L10.5248791,276.524697 C10.5248791,276.759611 10.3191972,276.950046 10.0654753,276.950046 C10.0654753,276.950046 10.0654753,276.950046 10.0654753,276.950046 L10.0654753,276.950046 Z M7.01029921,284.135321 L7.01029921,284.135321 C6.88779024,284.133587 6.7711045,284.086615 6.68617998,284.004845 L4.37647812,281.871574 L4.37647812,281.871574 C4.1884643,281.713834 4.17416254,281.444843 4.34453159,281.270767 C4.51490116,281.09669 4.80542738,281.083448 4.99344119,281.241188 C5.00436098,281.25035 5.01479836,281.259992 5.02471711,281.270083 L7.01029973,283.107175 L10.6178877,279.769617 L10.6178878,279.769617 C10.8129794,279.619427 11.1026345,279.644104 11.2648491,279.824734 C11.4059108,279.98181 11.4064466,280.20955 11.2661255,280.367193 L7.33582751,284.010064 L7.33582751,284.010064 C7.24936324,284.089871 7.13238808,284.134881 7.01029906,284.135321 L7.01029921,284.135321 Z" id="对账管理"></path>
                </g>
            </g>
        </g>
    </g>
</svg>