<?xml version="1.0" encoding="UTF-8"?>
<svg width="14px" height="14px" viewBox="0 0 14 14" version="1.1" xmlns="http://www.w3.org/2000/svg" xmlns:xlink="http://www.w3.org/1999/xlink">
    <title>平台</title>
    <g id="2首页" stroke="none" stroke-width="1"  fill-rule="evenodd">
        <g id="侧边栏icon组" transform="translate(-23.000000, -685.000000)">
            <g id="侧边栏">
               
                <g id="编组2" transform="translate(23.000000, 464.000000)"  fill-rule="nonzero">
                    <path d="M10.420008,233.590447 C10.6321119,233.585272 10.8082501,233.753021 10.8134259,233.965124 L10.8135402,233.974608 C10.8135402,234.164782 10.6786444,234.323449 10.4993187,234.360145 L10.4200084,234.36814 L10.4200084,234.36814 L3.28010316,234.36814 C3.08992936,234.36814 2.93126192,234.233242 2.89456653,234.053916 L2.88657135,233.974491 C2.88657135,233.762324 3.05856583,233.590329 3.27073288,233.590329 L10.420008,233.590447 Z M12.6124311,222 C13.2364889,222.030367 13.7205514,222.556159 13.699328,223.180595 L13.699328,231.613421 C13.7101896,232.230658 13.2290183,232.745012 12.6124284,232.775275 L1.08756888,232.775275 C0.46351107,232.744908 -0.0205514252,232.219116 0.000672005627,231.594679 L0.000671973521,223.161853 C-0.0101895423,222.544617 0.470981718,222.030263 1.08757159,222 L12.6124311,222 Z M12.9778561,230.142351 L0.759630329,230.142351 L0.759630331,231.594666 C0.743568986,231.801034 0.897842726,231.981349 1.10421084,231.99741 L12.6311727,231.997568 C12.8376273,231.982667 12.992914,231.803223 12.9780138,231.596768 L12.9779364,231.595717 L12.9778561,230.142351 Z M12.5936976,222.777684 L1.08757302,222.777684 C0.890258114,222.806515 0.747807347,222.981525 0.75963032,223.180586 L0.759630329,229.364657 L12.9403808,229.364657 L12.9403808,223.180586 C12.9513712,222.975113 12.798512,222.797466 12.5936976,222.777684 Z" id="形状结合"></path>
                </g>
            </g>
        </g>
    </g>
</svg>