<?xml version="1.0" encoding="UTF-8"?>
<svg width="14px" height="14px" viewBox="0 0 14 14" version="1.1" xmlns="http://www.w3.org/2000/svg" xmlns:xlink="http://www.w3.org/1999/xlink">
    <title>形状结合</title>
    <g id="2首页" stroke="none" stroke-width="1"  fill-rule="evenodd">
        <g id="侧边栏icon组" transform="translate(-23.000000, -523.000000)">
            <g id="侧边栏">
                
                <g id="编组2" transform="translate(23.000000, 464.000000)"  fill-rule="nonzero">
                    <path d="M1.54893489,69.4808189 L2.90034744,70.1183925 L2.49565396,70.4018235 C4.96062691,72.728295 8.82873077,72.6733594 11.2265058,70.2776397 L11.2265003,70.2776357 L11.3316913,70.178873 C11.4139494,70.090339 11.5470421,70.0716742 11.6504788,70.1341668 L11.6504788,70.1341668 L11.6662575,70.1341668 C11.6836161,70.1444302 11.699713,70.1566911 11.7142195,70.1706991 C11.816841,70.269793 11.8197004,70.4333163 11.7206061,70.5359379 L11.7206061,70.5359379 L11.615415,70.6440509 C8.98506188,73.2863837 4.71606347,73.3135648 2.05239102,70.704828 L2.05239102,70.704828 L1.67633286,70.9660527 L1.54893489,69.4808189 Z M3.26941189,62.3348406 C5.21310447,60.3820851 8.37175698,60.3744928 10.32451,62.3181854 L10.32451,62.3181854 C11.2717742,63.2543566 11.797542,64.5237586 11.7939926,65.8467064 L11.7939926,65.8467064 L11.7874062,66.1102451 C11.7243604,67.3358138 11.2112016,68.4988244 10.3411651,69.3729899 L10.3411651,69.3729899 L10.1611862,69.5451543 C8.20714642,71.3244137 5.17964572,71.2744378 3.28606708,69.389645 C1.33331158,67.4462461 1.32601293,64.2875936 3.26941189,62.3348406 Z M6.77109811,61.6616032 C4.4595227,61.6683342 2.59121386,63.5477511 2.59820691,65.8590329 C2.60493799,68.1706083 4.4843549,70.0389186 6.79563669,70.0322162 L6.79563669,70.0322162 L6.79563962,70.01934 C7.90743966,70.0240995 8.97452357,69.5818963 9.75706073,68.7921122 L9.75706073,68.7921122 L9.91875272,68.6194023 C10.5963099,67.8533554 10.9715161,66.8628202 10.9688164,65.8344944 C10.9620764,63.5229189 9.08267353,61.6546101 6.77109811,61.6616032 Z M6.07857767,63.9501138 L6.7956297,65.3815864 L7.51297394,63.9501138 L8.58066189,63.9501138 L7.56381563,65.7959178 L8.14704085,65.7959178 L8.14704085,66.4174218 L7.26752671,66.4174218 L7.26752671,66.5927404 L8.14704085,66.5927404 L8.14704085,67.2142444 L7.26752671,67.2142444 L7.26752671,68.0081448 L6.3272366,68.0081448 L6.3272366,67.2142444 L5.45356696,67.2142444 L5.45356696,66.5927404 L6.3272366,66.5927404 L6.3272366,66.4174218 L5.45356696,66.4174218 L5.45356696,65.7959178 L6.03065685,65.7959178 L5.01381059,63.9501138 L6.07857767,63.9501138 Z M8.83790019,59.3712563 L8.89622829,59.3792705 L9.17123507,59.4748673 L9.17123507,59.4748673 L9.44146836,59.5832245 L9.6802621,59.6896796 C12.3543517,60.9434868 13.9238967,63.7913688 13.5342784,66.7391334 L13.5342784,66.7391334 L13.964679,66.7809114 L13.0977306,67.9952827 L12.4826555,66.6374425 L13.0115324,66.688577 C13.0493601,66.4096552 13.0685901,66.1285243 13.0690951,65.8470494 L13.0690951,65.8470494 L13.0640175,65.5941064 C12.9595147,62.9904023 11.2507751,60.7102656 8.75918508,59.8891545 L8.75918508,59.8891545 L8.6990727,59.8615729 C8.62520733,59.8153884 8.57813716,59.7338075 8.57773276,59.6437073 L8.57773276,59.6437073 L8.57773276,59.6247162 C8.57786635,59.6038744 8.58055379,59.5831273 8.58573495,59.5629393 C8.6207573,59.4264804 8.75976936,59.344249 8.89622829,59.3792705 Z M4.07995659,59 L5.56519035,59.1466833 L4.69502743,60.3613468 L4.5325653,60.0010675 C3.71921162,60.3164587 2.98087466,60.7985976 2.36504739,61.4164747 L2.36504739,61.4164747 C1.17741472,62.5882095 0.510169102,64.188362 0.513107341,65.8572086 L0.513107341,65.8572086 L0.518424235,66.1289193 C0.52585086,66.3098662 0.54103653,66.4904533 0.56395001,66.670181 L0.56395001,66.670181 L0.565178987,66.7315357 C0.55715957,66.8121073 0.511476629,66.8857174 0.439766058,66.9281897 L0.439766058,66.9281897 L0.392730648,66.9497853 L0.392730648,66.9497853 L0.342304424,66.9614425 C0.202531041,66.9790851 0.0749219389,66.8800795 0.0572794748,66.7403073 L0.0572794748,66.7403073 L0.0252242013,66.4436833 C0.00818985973,66.2455517 -0.000187445749,66.0467279 4.40663057e-06,65.8476444 L4.40663057e-06,65.8476444 L0.004784533,65.5837274 C0.10313371,62.9593974 1.71033127,60.6163994 4.14336415,59.586732 L4.14336415,59.586732 L4.31576038,59.5166047 L4.07995659,59 Z" id="形状结合"></path>
                </g>
            </g>
        </g>
    </g>
</svg>