<?xml version="1.0" encoding="UTF-8"?>
<svg width="14px" height="12px" viewBox="0 0 14 12" version="1.1" xmlns="http://www.w3.org/2000/svg" xmlns:xlink="http://www.w3.org/1999/xlink">
    <title>投资管理</title>
    <g id="2首页" stroke="none" stroke-width="1"  fill-rule="evenodd">
        <g id="侧边栏icon组" transform="translate(-23.000000, -578.000000)">
            <g id="侧边栏">
                
                <g id="编组2" transform="translate(23.000000, 464.000000)"  fill-rule="nonzero">
                    <path d="M8.98366361,116.289497 C11.5989596,116.289497 13.7375168,118.414519 13.7375168,121.010264 C13.7375168,123.606009 11.5974557,125.731031 8.98366361,125.731031 C6.36987151,125.731031 4.23131433,123.607513 4.23131433,121.010264 C4.23131433,118.414519 6.36987151,116.289497 8.98366361,116.289497 Z M8.98366361,116.964752 C6.74284069,116.964752 4.90957684,118.785984 4.90957684,121.011768 C4.90957684,123.237552 6.74284069,125.058784 8.98366361,125.058784 C11.2244865,125.058784 13.0592543,123.237552 13.0577513,121.011768 C13.0577513,118.785984 11.2244865,116.964752 8.98366361,116.964752 Z M10.5069901,118.412895 L10.5763022,118.423542 C10.8064001,118.479187 10.8785877,118.763426 10.7116539,118.937879 C10.5853256,119.064207 10.4665169,119.192039 10.3311652,119.318368 L10.3311652,119.318368 L9.46040245,120.18913 C9.44385946,120.204169 9.41979693,120.220712 9.40475785,120.228232 L9.40475785,120.228232 L9.41227739,120.252294 L10.4740364,120.252294 C10.6409702,120.252294 10.759779,120.347041 10.7988806,120.497431 C10.8304626,120.664365 10.7206774,120.829795 10.5537436,120.853858 C10.5221615,120.861377 10.4830599,120.861377 10.4514778,120.861377 L10.4514778,120.861377 L9.27091004,120.861377 L9.27091004,121.479483 L10.498099,121.479483 C10.6484898,121.479483 10.7582751,121.581749 10.7898571,121.729132 C10.8379822,121.85546 10.7657946,121.998332 10.6394663,122.053976 C10.5913413,122.078039 10.5372006,122.085558 10.4890755,122.085558 L10.4890755,122.085558 L9.29497257,122.085558 L9.29497257,123.305228 C9.29497257,123.43306 9.23180843,123.527806 9.1129997,123.59097 C9.00171051,123.637591 8.89042132,123.622552 8.78815557,123.542845 C8.70844845,123.470658 8.67686638,123.39095 8.67686638,123.288685 L8.67686638,123.288685 L8.67686638,122.084054 L7.44967745,122.084054 C7.32184527,122.084054 7.20303654,122.004347 7.16393493,121.878019 C7.11580988,121.75921 7.15641539,121.625362 7.2511616,121.545655 C7.31432573,121.491515 7.38500941,121.474972 7.46471653,121.474972 L7.46471653,121.474972 L8.58963972,121.474972 C8.61219834,121.482491 8.63626086,121.482491 8.66032339,121.482491 L8.66032339,121.482491 L8.66032339,120.864385 L7.46471653,120.864385 C7.25868114,120.864385 7.12483332,120.71249 7.1398724,120.522998 C7.15641539,120.365088 7.2902632,120.253798 7.46471653,120.253798 L7.46471653,120.253798 L8.54151466,120.253798 C8.51745213,120.229736 8.50090914,120.213193 8.4933896,120.198154 L8.4933896,120.198154 L7.24965769,118.954422 C7.1383685,118.843133 7.11580988,118.692742 7.18649355,118.566414 C7.28123976,118.408503 7.48727515,118.367898 7.63014641,118.479187 C7.65270503,118.494226 7.67676756,118.518289 7.70083009,118.542351 L7.70083009,118.542351 L8.92049948,119.76202 C8.93553856,119.77706 8.944562,119.801122 8.95208154,119.825185 C8.95960108,119.825185 8.96712062,119.817665 8.98366361,119.817665 C8.99268706,119.801122 9.01524568,119.778563 9.03178867,119.76202 C9.44385946,119.34995 9.85593025,118.937879 10.268001,118.518289 C10.3552277,118.431062 10.4574935,118.39196 10.5763022,118.423542 Z M3.4928955,122.404387 C3.57260263,122.753293 3.69141136,123.094681 3.83428262,123.427044 L3.83428262,123.427044 L1.07009972,123.427044 C0.951290984,123.427044 0.85654478,123.332298 0.85654478,123.213489 L0.85654478,123.213489 L0.85654478,122.626965 C0.85654478,122.508156 0.951290984,122.41341 1.07009972,122.41341 L1.07009972,122.41341 L1.07009972,122.404387 Z M3.4161962,120.338017 C3.37709459,120.614736 3.35303206,120.883936 3.35303206,121.145616 C3.35303206,121.216299 3.3605516,121.288487 3.3605516,121.359171 L3.3605516,121.359171 L1.95740544,121.359171 C1.8385967,121.359171 1.7438505,121.264425 1.7438505,121.145616 L1.7438505,121.145616 L1.7438505,120.559092 C1.7438505,120.440283 1.8385967,120.345537 1.95740544,120.345537 L1.95740544,120.345537 L1.95740544,120.338017 Z M4.12754468,118.277663 C3.92902882,118.602507 3.77111848,118.943895 3.65230975,119.300321 L3.65230975,119.300321 L0.476056056,119.300321 C0.357247324,119.300321 0.26250112,119.205575 0.26250112,119.086766 L0.26250112,119.086766 L0.26250112,118.500242 C0.26250112,118.381433 0.364766864,118.286687 0.483575596,118.277663 L0.483575596,118.277663 Z M6.23451979,116.218813 C5.75176532,116.497036 5.30811246,116.845943 4.9201042,117.241471 L4.9201042,117.241471 L2.2506675,117.241471 C2.13185876,117.241471 2.03711256,117.146724 2.03711256,117.027916 L2.03711256,117.027916 L2.03711256,116.441392 C2.03711256,116.321079 2.13185876,116.218813 2.24916359,116.218813 L2.24916359,116.218813 Z M7.85122089,114.167483 C7.97002962,114.167483 8.06477582,114.262229 8.06477582,114.381038 L8.06477582,114.381038 L8.06477582,114.967562 C8.06477582,115.08637 7.97002962,115.181117 7.85122089,115.181117 L7.85122089,115.181117 L1.36336178,115.181117 C1.24455304,115.181117 1.14980684,115.08637 1.14980684,114.967562 L1.14980684,114.967562 L1.14980684,114.381038 C1.14980684,114.262229 1.24455304,114.167483 1.36336178,114.167483 L1.36336178,114.167483 Z" id="投资管理"></path>
                </g>
            </g>
        </g>
    </g>
</svg>