<?xml version="1.0" encoding="UTF-8"?>
<svg width="14px" height="14px" viewBox="0 0 14 14" version="1.1" xmlns="http://www.w3.org/2000/svg" xmlns:xlink="http://www.w3.org/1999/xlink">
    <title>报表</title>
    <g id="2首页" stroke="none" stroke-width="1"  fill-rule="evenodd">
        <g id="侧边栏icon组" transform="translate(-24.000000, -417.000000)"  fill-rule="nonzero">
            <g id="侧边栏">
                <g id="编组-1" transform="translate(0.000000, 79.000000)">
                    <path d="M36.5714287,351 L26.2857143,351 L26.2857143,351 C25.5756344,351 25,350.454347 25,349.78125 C25,349.78125 25,349.78125 25,349.78125 L25,339.21875 L25,339.21875 C25,338.545653 25.5756344,338 26.2857143,338 L35.7142858,338 L35.7142857,338 C36.4243656,338 37,338.545653 37,339.21875 L37,350.59375 L37,350.59375 C37,350.818115 36.8081219,351 36.5714286,351 L36.5714287,351 Z M26.2857143,338.8125 L26.2857143,338.8125 C26.049021,338.8125 25.8571429,338.994385 25.8571429,339.21875 C25.8571429,339.21875 25.8571429,339.21875 25.8571429,339.21875 L25.8571429,349.78125 L25.8571429,349.78125 C25.8571429,350.005616 26.049021,350.1875 26.2857143,350.1875 L36.1428572,350.1875 L36.1428572,339.21875 L36.1428572,339.21875 C36.1428572,338.994385 35.9509791,338.8125 35.7142858,338.8125 L26.2857143,338.8125 Z M28.0000001,345.3125 L34.0000001,345.3125 L34.0000001,346.125 L28.0000001,346.125 L28.0000001,345.3125 Z M28.0000001,346.9375 L34.0000001,346.9375 L34.0000001,347.75 L28.0000001,347.75 L28.0000001,346.9375 Z M31.8571429,343.858125 L30.1428572,342.233125 L28.4285715,343.858125 L27.8200001,343.28125 L30.1428572,341.079375 L31.8571429,342.704375 L33.5714287,341.079375 L34.1800001,341.65625 L31.8571429,343.858125 Z" id="报表"></path>
                </g>
            </g>
        </g>
    </g>
</svg>