<?xml version="1.0" encoding="UTF-8"?>
<svg width="14px" height="14px" viewBox="0 0 14 14" version="1.1" xmlns="http://www.w3.org/2000/svg" xmlns:xlink="http://www.w3.org/1999/xlink">
    <title>操作帮助</title>
    <g id="2首页" stroke="none" stroke-width="1"  fill-rule="evenodd">
        <g id="侧边栏icon组" transform="translate(-24.000000, -792.000000)" l="#AAB3CB" fill-rule="nonzero">
            <g id="侧边栏">
                <g id="编组-1" transform="translate(0.000000, 79.000000)">
                    <path d="M37,713 L37,724.943979 C37,725.412677 36.835222,725.867314 36.5344621,726.231336 L36.5344621,726.231336 L36.5152646,726.254771 C36.4272764,726.356322 36.3408879,726.440687 36.2481003,726.517241 L36.2481003,726.517241 L36.2145047,726.543801 C35.8385549,726.83908 35.3714171,727 34.8978803,727 L34.8978803,727 L27.1085189,727 C26.6285829,727 26.1614451,726.83908 25.7886948,726.545363 L25.7886948,726.545363 L25.7534995,726.517241 C25.6671111,726.445374 25.5871217,726.367258 25.5119317,726.282893 L25.5119317,726.282893 L25.4815358,726.250084 C25.1679776,725.875126 25,725.415802 25,724.947104 L25,724.947104 L25,714.857605 C25,713.83272 25.8526863,713 26.9021464,713 L26.9021464,713 L37,713 Z M34.8978803,723.751925 L27.1021197,723.751925 C26.4286095,723.751925 25.8798827,724.28624 25.8782829,724.943979 C25.8798827,725.603281 26.4302093,726.140721 27.1069191,726.140721 L27.1069191,726.140721 L34.8914811,726.140721 C35.5681909,726.140721 36.1185175,725.604843 36.1217171,724.943979 C36.1201173,724.28624 35.5713905,723.751925 34.8978803,723.751925 L34.8978803,723.751925 Z M36.1201173,713.857717 L30.279,713.857 L30.2792961,718.866533 C30.2792961,718.999135 30.1384399,719.075518 30.0271328,719.024511 L29.9817358,718.994643 L29.1130516,718.213481 C28.9578723,718.111929 28.6923077,718.100993 28.5051326,718.229104 L28.5051326,718.229104 L27.6524463,719.011829 C27.5388615,719.114943 27.3532862,719.036826 27.3532862,718.885281 L27.3532862,718.885281 L27.353,713.857 L26.9021464,713.857717 C26.37507,713.857717 25.9399707,714.248312 25.8843,714.748782 L25.8782829,714.857605 L25.8782829,723.281665 C26.2350353,723.031693 26.6589788,722.895771 27.1021197,722.895771 L27.1021197,722.895771 L34.8962805,722.895771 C35.3394214,722.895771 35.7649647,723.030131 36.1201173,723.281665 L36.1201173,723.281665 L36.1201173,713.857717 Z M29.4010132,713.956143 L28.2299693,713.956143 L28.2299693,717.397947 C28.5979203,717.233902 29.0330623,717.23234 29.4010132,717.394822 L29.4010132,717.394822 L29.4010132,713.956143 Z" id="操作帮助"></path>
                </g>
            </g>
        </g>
    </g>
</svg>