<?xml version="1.0" encoding="UTF-8"?>
<svg width="12px" height="14px" viewBox="0 0 12 14" version="1.1" xmlns="http://www.w3.org/2000/svg" xmlns:xlink="http://www.w3.org/1999/xlink">
    <title>监控</title>
    <g id="2首页" stroke="none" stroke-width="1"  fill-rule="evenodd">
        <g id="侧边栏icon组" transform="translate(-24.000000, -469.000000)">
            <g id="侧边栏">
               
                <g id="编组2" transform="translate(23.000000, 464.000000)"  fill-rule="nonzero">
                    <path d="M6.71990712,13.1215881 L6.71990701,13.1215881 C8.21549238,13.1215881 9.42790391,11.9091766 9.42790391,10.4135912 C9.42790391,8.91800584 8.21549238,7.70559432 6.71990701,7.70559432 L6.71990694,7.70559432 C5.22458776,7.70559432 4.01239129,8.91779078 4.01239129,10.41311 C4.01239129,11.9084291 5.22458776,13.1206256 6.71990694,13.1206256 L6.71990712,13.1215881 Z M5.33775552,9.03095836 L5.33775558,9.0309583 C5.70339922,8.66298359 6.20116119,8.45673915 6.71990718,8.45826167 C7.24158279,8.45826167 7.73342086,8.66039537 8.10205879,9.0309583 C8.47165922,9.40055873 8.67474696,9.8914343 8.67474696,10.4131099 C8.67474696,10.9347855 8.47262172,11.4266236 8.10205879,11.7952615 L8.10205886,11.7952614 C7.73641521,12.1632362 7.23865324,12.3694806 6.71990725,12.3679581 C6.19823164,12.3679581 5.70639357,12.1658244 5.33775564,11.7952614 L5.33775556,11.7952614 C4.96978086,11.4296177 4.76353642,10.9318558 4.76505893,10.4131098 C4.76505893,9.89143416 4.96719263,9.40055859 5.33775556,9.03095816 L5.33775552,9.03095836 Z M12.4342769,10.7153353 L12.4342769,10.7143728 C12.4342769,7.55840684 9.87587318,5.00000187 6.7199072,5.00000187 C6.71958634,5.00000187 6.71926548,5.00000187 6.71894462,5.00000187 L6.71894472,5.00000187 C3.56299378,4.99747419 1.00253025,7.55383504 1.00000184,10.709786 C0.998309398,12.8236339 2.16368408,14.7657356 4.02971659,15.7588413 L3.66877867,17.8031936 L2.95941534,17.8031936 L2.95941534,18.554907 L10.4784741,18.554907 L10.4784741,17.8031936 L9.76718576,17.8031936 L9.40624784,15.7598038 L9.40624828,15.7598035 C11.2701768,14.7670242 12.4346077,12.8271679 12.4342769,10.7153352 L12.4342769,10.7153353 Z M2.1461018,12.6461126 L2.14610171,12.6461124 C1.88803711,12.0351948 1.75578495,11.3785209 1.7572392,10.7153351 L1.7572392,10.7153496 C1.75497885,9.39898941 2.27812531,8.13614733 3.21061745,7.20703297 L3.21061726,7.20703316 C4.13950152,6.27477563 5.40194656,5.75164424 6.71797134,5.75364912 L6.71797156,5.75364912 C8.0343317,5.75138794 9.29717378,6.27453801 10.2262881,7.20703316 L10.226288,7.20703302 C11.1587831,8.13615189 11.6819341,9.39899396 11.679672,10.7153496 L11.679672,10.715335 C11.6819371,12.0316951 11.1587906,13.2945372 10.2262985,14.2236516 L10.2262985,14.2236516 C9.29717962,15.1561467 8.03433754,15.6792962 6.71798191,15.6770356 L6.71798184,15.6770356 C5.4016217,15.6792968 4.13877962,15.1561467 3.20966526,14.2236516 L3.20966509,14.2236514 C2.75628495,13.7716789 2.3950673,13.2358997 2.14610135,12.6461121 L2.1461018,12.6461126 Z M9.00584751,17.8012686 L4.43396696,17.8012686 L4.73811732,16.0764666 L4.73811753,16.0764666 C5.37185534,16.3108672 6.04228549,16.4304821 6.71798233,16.4297045 L6.71798235,16.4297045 C7.39400103,16.4305971 8.06476806,16.3109805 8.69880966,16.0764666 L9.00584751,17.8012686 L9.00584751,17.8012686 Z M6.34356919,13.6480762 L7.09624506,13.6480762 L7.09624506,14.3997896 L6.34356919,14.3997896 L6.34356919,13.6480762 Z" id="监控"></path>
                </g>
            </g>
        </g>
    </g>
</svg>