<?xml version="1.0" encoding="UTF-8"?>
<svg width="14px" height="14px" viewBox="0 0 14 14" version="1.1" xmlns="http://www.w3.org/2000/svg" xmlns:xlink="http://www.w3.org/1999/xlink">
    <title>票据</title>
    <g id="2首页" stroke="none" stroke-width="1"  fill-rule="evenodd">
        <g id="侧边栏icon组" transform="translate(-23.000000, -630.000000)">
            <g id="侧边栏">
               
                <g id="编组2" transform="translate(23.000000, 464.000000)"  stroke="#AAB3CB">
                    <g id="票据" transform="translate(0.000000, 168.000000)">
                        <path d="M13.0322967,-3.59975105e-06 L0.620595947,-3.59975105e-06 L0.620595958,-3.59975105e-06 C0.278027868,-0.000171378945 0.000183277175,0.277395152 1.19182359e-05,0.619963242 C1.19182359e-05,0.6200667 1.19182359e-05,0.620170159 1.19182359e-05,0.620273617 L1.19182359e-05,3.18297816 L1.19182359e-05,3.18297284 C0.000794457107,3.46627178 0.193333719,3.71307785 0.467927517,3.78277135 L0.467927522,3.78277135 C1.46341295,4.04150608 2.06066318,5.05824929 1.80193063,6.05373362 C1.63203963,6.70739056 1.12158337,7.21784464 0.467927522,7.38773673 L0.467927492,7.38773674 C0.193223517,7.45745828 0.000654416165,7.70442939 1.19182359e-05,7.98784288 L1.19182359e-05,10.5502311 C1.19182359e-05,10.8927937 0.277724489,11.1705042 0.620286034,11.1705042 L13.0323141,11.1705042 L13.0323141,11.1705042 C13.3748821,11.1706755 13.6527267,10.893109 13.6528981,10.5505409 C13.6528981,10.5504374 13.6528981,10.550334 13.6528981,10.5502305 L13.6528981,7.98784231 L13.6528981,7.9878463 C13.6522564,7.70443173 13.4596876,7.45745985 13.1849814,7.38773907 L13.1849814,7.38773907 C12.189496,7.12764512 11.5933475,6.10979577 11.8534327,5.11431143 C12.0237852,4.46230388 12.5329684,3.95312395 13.1849814,3.78276278 L13.1849814,3.78276276 C13.4596865,3.71304177 13.6522556,3.4660712 13.6528981,3.18265772 L13.6528981,0.620269527 L13.6528981,0.620269449 C13.6528981,0.277701359 13.3751921,-3.59975105e-06 13.0326251,-3.59975105e-06 C13.0325216,-3.59975105e-06 13.0324182,-3.59975105e-06 13.0323147,-3.59975105e-06 M13.0323147,0.620571422 L13.0292118,3.18204138 L13.0292117,3.1820414 C11.9344255,3.46599596 11.1701183,4.45424673 11.1705656,5.58524984 L11.1705655,5.58539633 C11.1701746,6.71729396 11.9362679,7.70581854 13.0324624,7.98787389 L13.0324624,10.549913 L0.620761669,10.5502233 L0.623554296,7.9884569 L0.623554434,7.98845687 C1.71834066,7.70454486 2.48263692,6.71625154 2.48205876,5.58524843 L2.48205886,5.58504446 C2.48261155,4.45314683 1.71638702,3.46463316 0.620107393,3.18291598 L0.620107393,0.620571422 L13.0322445,0.620571422" id="形状" stroke-width="0.1" fill-rule="nonzero"></path>
                        <line x1="4" y1="7" x2="9" y2="7" id="路径-2备份" stroke-width="0.9" stroke-linecap="round"></line>
                        <line x1="4" y1="4" x2="9" y2="4" id="路径-2" stroke-width="0.9" stroke-linecap="round"></line>
                    </g>
                </g>
            </g>
        </g>
    </g>
</svg>