<?xml version="1.0" encoding="UTF-8"?>
<svg width="14px" height="14px" viewBox="0 0 14 14" version="1.1" xmlns="http://www.w3.org/2000/svg" xmlns:xlink="http://www.w3.org/1999/xlink">
    <title>结算</title>
    <g id="2首页" stroke="none" stroke-width="1"  fill-rule="evenodd">
        <g id="侧边栏icon组" transform="translate(-25.000000, -201.000000)"  fill-rule="nonzero">
            <g id="侧边栏">
                <g id="编组-1" transform="translate(0.000000, 79.000000)">
                    <path d="M36.5570939,122 L30.9461785,122 L30.9461786,122 C30.0375393,122.001008 29.3011922,122.737354 29.3001903,123.645994 L29.3001903,125.818519 L29.2820026,125.801544 L25.0427412,130.321187 L25,136 L25.8536099,136 L25.893623,130.661596 L29.3001789,127.030725 L29.3001789,130.542768 L27.8997247,131.943222 L28.5035566,132.546448 L31.4639142,129.585184 C31.6688292,129.380573 31.9467982,129.262958 32.2256767,129.262958 C32.4721203,129.262958 32.6979515,129.35329 32.8622472,129.517284 C33.0341214,129.68946 33.1247573,129.927719 33.1156635,130.187199 L33.1156635,130.187198 C33.1050693,130.461856 32.9897773,130.72205 32.7934388,130.914405 L27.7087518,136 L28.9155076,136 L30.0746717,134.841138 L30.0746718,134.841138 C30.3356917,135.005411 30.637757,135.092721 30.9461673,135.093037 L36.5570828,135.093037 L36.5570828,135.093037 C37.4659385,135.092035 38.2025088,134.355601 38.2036785,133.446745 L38.2036785,123.645989 L38.2036785,123.645998 C38.2023473,122.737262 37.4658311,122.001007 36.5570928,122 L36.5570939,122 Z M35.1539111,134.239438 L30.9464839,134.239438 C30.8652454,134.239438 30.7885538,134.223372 30.7148934,134.200638 L33.3969833,131.517642 L33.3969834,131.517642 C33.7460431,131.172405 33.9505653,130.707218 33.9689878,130.216613 C33.9865693,129.717663 33.8074202,129.255392 33.4657935,128.913462 C33.1405364,128.588205 32.7006966,128.409056 32.2259969,128.409056 C31.7228026,128.409056 31.2247634,128.617609 30.8610084,128.981667 L30.1541124,129.688866 L30.1541124,123.646 L30.1541124,123.646 C30.1546133,123.208539 30.5090304,122.853985 30.9464907,122.853318 L35.15422,122.853318 L35.1539169,134.239438 L35.1539111,134.239438 Z M37.3497793,133.446756 L37.3497793,133.446756 C37.3492784,133.884217 36.9948596,134.238771 36.557401,134.239438 L36.0078282,134.239438 L36.0078282,122.853621 L36.557401,122.853621 L36.557401,122.853621 C36.9949301,122.854122 37.3494454,123.208774 37.3497793,123.646303 L37.3497793,133.446756 L37.3497793,133.446756 Z" id="结算"></path>
                </g>
            </g>
        </g>
    </g>
</svg>