<?xml version="1.0" encoding="UTF-8"?>
<svg width="14px" height="14px" viewBox="0 0 14 14" version="1.1" xmlns="http://www.w3.org/2000/svg" xmlns:xlink="http://www.w3.org/1999/xlink">
    <title>账户</title>
    <g id="2首页" stroke="none" stroke-width="1"  fill-rule="evenodd">
        <g id="侧边栏icon组" transform="translate(-24.000000, -147.000000)"  fill-rule="nonzero">
            <g id="侧边栏">
                <g id="编组-1" transform="translate(0.000000, 79.000000)">
                    <path d="M36.4014273,80 L25.5860839,80 C24.7118644,80 24,79.2875 24,78.4125 L24,70.5875 C24,69.7125 24.7118644,69 25.5860839,69 L36.4139161,69 C37.2881356,69 38,69.7125 38,70.5875 L38,78.425 C37.9875112,79.2875 37.2756467,80 36.4014273,80 Z M25.5868887,70 C25.2622268,70 25,70.2621359 25,70.5866852 L25,78.4133148 C25,78.7378641 25.2622268,79 25.5868887,79 L36.4131113,79 C36.7377732,79 37,78.7378641 37,78.4133148 L37,70.5866852 C37,70.2621359 36.7377732,70 36.4131113,70 L25.5868887,70 Z M35.5,73 L26.5,73 C26.225,73 26,72.775 26,72.5 C26,72.225 26.225,72 26.5,72 L35.5,72 C35.775,72 36,72.225 36,72.5 C36,72.775 35.775,73 35.5,73 Z M27.6,77 L26.4,77 C26.18,77 26,76.775 26,76.5 C26,76.225 26.18,76 26.4,76 L27.6,76 C27.82,76 28,76.225 28,76.5 C28,76.775 27.82,77 27.6,77 Z" id="账户"></path>
                </g>
            </g>
        </g>
    </g>
</svg>