<?xml version="1.0" encoding="UTF-8"?>
<svg width="14px" height="14px" viewBox="0 0 14 14" version="1.1" xmlns="http://www.w3.org/2000/svg" xmlns:xlink="http://www.w3.org/1999/xlink">
    <title>资金池</title>
    <g id="2首页" stroke="none" stroke-width="1" fill-rule="evenodd">
        <g id="侧边栏icon组" transform="translate(-24.000000, -309.000000)"  fill-rule="nonzero">
            <g id="侧边栏">
                <g id="编组-1" transform="translate(0.000000, 79.000000)">
                    <path d="M33.7066667,231.372549 C33.1466667,230.54902 32.3066667,230 31.1866667,230 C30.16,230 29.32,230.54902 28.76,231.281046 C26.0533333,231.738562 24,234.026144 24,236.862745 L24,237.503268 C24,240.614379 26.6133333,243.176471 29.7866667,243.176471 L32.2133333,243.176471 C35.3866667,243.176471 38,240.614379 38,237.503268 L38,236.862745 C38,234.20915 36.1333333,232.013072 33.7066667,231.372549 Z M31.1866667,230.823529 C32.4,230.823529 33.3333333,231.738562 33.3333333,232.928105 C33.3333333,233.111111 33.3333333,233.385621 33.24,233.568627 L29.1333333,233.568627 C29.1333333,233.294118 29.04,233.111111 29.04,232.928105 C29.04,231.738562 29.9733333,230.823529 31.1866667,230.823529 Z M37.16,237.503268 C37.16,240.156863 34.92,242.352941 32.2133333,242.352941 L29.7866667,242.352941 C27.08,242.352941 24.84,240.156863 24.84,237.503268 L24.84,236.862745 C24.84,234.666667 26.3333333,232.836601 28.3866667,232.196078 C28.2933333,232.470588 28.2,232.653595 28.2,232.928105 C28.2,233.111111 28.2,233.294118 28.2933333,233.568627 L27.92,233.568627 C27.64,233.477124 27.5466667,233.660131 27.5466667,233.843137 C27.5466667,234.026144 27.7333333,234.20915 27.92,234.20915 L34.36,234.20915 C34.5466667,234.300654 34.7333333,234.117647 34.7333333,233.843137 C34.7333333,233.660131 34.5466667,233.477124 34.36,233.477124 L34.08,233.477124 C34.08,233.294118 34.1733333,233.111111 34.1733333,232.836601 C34.1733333,232.653595 34.1733333,232.470588 34.08,232.287582 C35.9466667,233.019608 37.2533333,234.75817 37.2533333,236.771242 L37.2533333,237.503268 L37.16,237.503268 Z M32.5866667,237.777778 C32.7733333,237.777778 32.96,237.594771 32.96,237.411765 C32.96,237.228758 32.7733333,237.045752 32.5866667,237.045752 L31.7466667,237.045752 L32.4933333,236.313725 C32.68,236.130719 32.68,235.947712 32.4933333,235.764706 C32.4,235.581699 32.12,235.581699 31.9333333,235.764706 L31,236.679739 L30.0666667,235.764706 C29.88,235.581699 29.6933333,235.581699 29.5066667,235.764706 C29.32,235.947712 29.32,236.130719 29.5066667,236.313725 L30.2533333,237.045752 L29.4133333,237.045752 C29.2266667,237.045752 29.04,237.228758 29.04,237.411765 C29.04,237.594771 29.2266667,237.777778 29.4133333,237.777778 L30.5333333,237.777778 L30.5333333,238.509804 L29.4133333,238.509804 C29.2266667,238.509804 29.04,238.69281 29.04,238.875817 C29.04,239.058824 29.2266667,239.24183 29.4133333,239.24183 L30.5333333,239.24183 L30.5333333,240.248366 C30.5333333,240.431373 30.72,240.614379 30.9066667,240.614379 C31.0933333,240.614379 31.28,240.431373 31.28,240.248366 L31.28,239.333333 L32.4,239.333333 C32.5866667,239.333333 32.7733333,239.150327 32.7733333,238.96732 C32.7733333,238.784314 32.5866667,238.601307 32.4,238.601307 L31.3733333,238.601307 L31.3733333,237.777778 L32.5866667,237.777778 L32.5866667,237.777778 Z" id="资金池"></path>
                </g>
            </g>
        </g>
    </g>
</svg>