<?xml version="1.0" encoding="UTF-8"?>
<svg width="14px" height="14px" viewBox="0 0 14 14" version="1.1" xmlns="http://www.w3.org/2000/svg" xmlns:xlink="http://www.w3.org/1999/xlink">
    <title>预算</title>
    <g id="2首页" stroke="none" stroke-width="1"  fill-rule="evenodd">
        <g id="侧边栏icon组" transform="translate(-25.000000, -255.000000)"  fill-rule="nonzero">
            <g id="侧边栏">
                <g id="编组-1" transform="translate(0.000000, 79.000000)">
                    <path d="M34.2857144,177.857143 L28.7142859,177.857143 L28.7142859,178.321428 L28.7142859,178.321428 C28.7142859,178.577846 28.5064179,178.785714 28.2500001,178.785714 C27.9935824,178.785714 27.7857144,178.577846 27.7857144,178.321428 L27.7857144,177.857143 L26.857143,177.857143 L26.857143,177.857143 C26.3443075,177.857143 25.9285715,178.272879 25.9285715,178.785714 C25.9285715,178.785714 25.9285715,178.785714 25.9285715,178.785714 L25.9285715,187.142857 L25.9285715,187.142857 C25.9285715,187.655693 26.3443075,188.071429 26.857143,188.071429 L36.1428572,188.071429 L36.1428572,188.071429 C36.6556926,188.071429 37.0714286,187.655693 37.0714286,187.142857 L37.0714286,178.785714 L37.0714286,178.785714 C37.0714286,178.272879 36.6556926,177.857143 36.1428572,177.857143 L35.2142857,177.857143 L35.2142857,178.321428 L35.2142857,178.321428 C35.2142857,178.577846 35.0064178,178.785714 34.75,178.785714 C34.4935823,178.785714 34.2857143,178.577846 34.2857143,178.321428 L34.2857143,177.857143 L34.2857144,177.857143 Z M35.2142858,176.928571 L36.1428572,176.928571 L36.1428572,176.928571 C37.1685281,176.928571 38,177.760042 38,178.785714 L38,187.142857 L38,187.142857 C38,188.168528 37.1685281,189 36.1428572,189 L26.8571429,189 L26.8571428,189 C25.8314719,189 25,188.168528 25,187.142857 C25,187.142857 25,187.142857 25,187.142857 L25,178.785714 L25,178.785714 C25,177.760043 25.8314704,176.928571 26.8571428,176.928571 L27.7857143,176.928571 L27.7857143,176.464286 L27.7857143,176.464286 C27.7857142,176.207868 27.9935822,176 28.25,176 C28.5064177,176 28.7142857,176.207868 28.7142857,176.464286 C28.7142857,176.464286 28.7142857,176.464286 28.7142857,176.464286 L28.7142857,176.928571 L34.2857142,176.928571 L34.2857142,176.464286 L34.2857142,176.464286 C34.2857142,176.207868 34.4935822,176 34.7499999,176 C35.0064177,176 35.2142857,176.207868 35.2142857,176.464286 C35.2142857,176.464286 35.2142857,176.464286 35.2142857,176.464286 L35.2142857,176.928572 L35.2142858,176.928571 Z M25.9285716,179.714285 L37.0714287,179.714285 L37.0714287,180.642857 L25.9285716,180.642857 L25.9285716,179.714285 Z M32.6124287,181.608571 L32.6867144,181.649428 L32.6867144,181.649428 C32.8729931,181.774009 32.9436994,182.013867 32.8547858,182.219571 L32.8148572,182.293857 L32.6765001,182.5 L32.8928572,182.5 L32.8928572,182.5 C33.1171,182.499925 33.3093505,182.660133 33.3497144,182.880714 L33.357143,182.964286 L33.357143,182.964286 C33.357143,183.220703 33.149275,183.428571 32.8928572,183.428571 L32.0580715,183.428571 L31.9642858,183.568786 L31.9642858,184.357143 L32.8928572,184.357143 L32.8928573,184.357143 C33.1171,184.357068 33.3093506,184.517276 33.3497144,184.737857 L33.357143,184.821428 L33.357143,184.821428 C33.357143,185.077846 33.149275,185.285714 32.8928573,185.285714 L31.9642858,185.285714 L31.9642858,186.214286 L31.9642858,186.21428 C31.9643633,186.438523 31.8041566,186.630775 31.5835774,186.671142 L31.5000006,186.678571 L31.5000005,186.678571 C31.2435828,186.678571 31.0357148,186.470703 31.0357148,186.214285 C31.0357148,186.214285 31.0357148,186.214285 31.0357148,186.214285 L31.0357148,185.285714 L30.1071434,185.285714 L30.1071434,185.285714 C29.8829007,185.285789 29.6906501,185.12558 29.6502863,184.905 L29.6428577,184.821428 L29.6428577,184.821428 C29.6428577,184.565011 29.8507257,184.357143 30.1071434,184.357143 L31.0357148,184.357143 L31.0357148,183.570643 L30.9410005,183.428571 L30.1071434,183.428571 L30.1071434,183.428571 C29.8829007,183.428646 29.6906501,183.268438 29.6502863,183.047857 L29.6428577,182.964285 L29.6428577,182.964285 C29.6428577,182.707868 29.8507257,182.5 30.1071434,182.5 L30.322572,182.5 L30.1851434,182.292928 L30.1851434,182.292928 C30.043553,182.079148 30.102075,181.791062 30.315856,181.649472 C30.5018343,181.526296 30.7491245,181.552791 30.9047864,181.712572 L30.957715,181.777572 L31.438715,182.5 L31.5594293,182.5 L32.0422864,181.7785 L32.0422864,181.7785 C32.1665908,181.591882 32.4065069,181.520766 32.6124293,181.6095 L32.6124287,181.608571 Z" id="预算"></path>
                </g>
            </g>
        </g>
    </g>
</svg>