<?xml version="1.0" encoding="UTF-8"?>
<svg width="14px" height="14px" viewBox="0 0 14 14" version="1.1" xmlns="http://www.w3.org/2000/svg" xmlns:xlink="http://www.w3.org/1999/xlink">
    <title>首页</title>
    <g id="2首页" stroke="none" stroke-width="1"  fill-rule="evenodd">
        <g id="侧边栏icon组" transform="translate(-25.000000, -92.000000)"  fill-rule="nonzero">
            <g id="侧边栏">
                <g id="编组-1" transform="translate(0.000000, 79.000000)">
                    <g id="首页" transform="translate(25.000000, 13.000000)">
                        <path d="M10.4135513,13.4 L7.82663114,13.4 C7.55566323,13.4 7.34607479,13.1912786 7.34607479,12.9179888 L7.34607479,8.77359337 L5.86398512,8.77359337 L5.86398512,12.9179888 C5.86398512,13.189777 5.65589374,13.4 5.38342877,13.4 L2.83842629,13.4 C2.04498434,13.4 1.3982543,12.751312 1.3982543,11.955468 L1.3982543,7.72848496 L1.12728639,7.72848496 C0.501515194,7.72848496 4.52970994e-14,7.22545146 4.52970994e-14,6.59778578 C4.52970994e-14,6.30497523 0.10479422,6.03318698 0.312885598,5.82296403 L5.17384033,0.654482495 C5.96728228,-0.181904552 7.2817012,-0.223949143 8.13652262,0.570393312 C8.15748147,0.612437903 8.17844031,0.633460199 8.220358,0.654482495 L13.0813127,5.82296403 C13.5199514,6.26293064 13.4989925,6.97468551 13.0603539,7.41315053 C12.8522625,7.62187189 12.5603357,7.72698337 12.2669119,7.72698337 L11.8492321,7.72698337 L11.8492321,11.9539664 C11.8522262,12.751312 11.2054962,13.4 10.4135513,13.4 Z M8.32664928,12.4374792 L10.4135513,12.4374792 C10.6845192,12.4374792 10.9135694,12.2077355 10.9135694,11.9359473 L10.9135694,7.24797535 C10.9135694,6.9761871 11.1216608,6.76596414 11.3941258,6.76596414 L12.2908649,6.76596414 C12.3537414,6.76596414 12.416618,6.72391955 12.4375768,6.66085267 C12.4585356,6.59778578 12.4585356,6.53471889 12.3956591,6.4731536 L7.51224848,1.32569436 C7.07360982,0.864705451 6.36400325,0.843683155 5.9059028,1.28364977 C5.88494396,1.28364977 5.86398512,1.30467207 5.86398512,1.32569436 L1.00303039,6.4731536 C0.940153856,6.53622049 0.940153856,6.63983037 1.00303039,6.70289726 C1.04494808,6.74494185 1.08686576,6.74494185 1.12878345,6.74494185 L1.8997695,6.74494185 C2.17073741,6.74494185 2.38032585,6.95366321 2.38032585,7.22695306 L2.38032585,11.9359473 C2.38032585,12.2077355 2.60937607,12.4374792 2.88034398,12.4374792 L4.94628716,12.4374792 L4.94628716,8.77509497 C4.94628716,8.23151847 5.38492583,7.81257415 5.9059028,7.81257415 L7.38799248,7.81257415 C7.9299283,7.81257415 8.34760812,8.25254076 8.34760812,8.77509497 L8.32664928,12.4374792 Z"></path>
                    </g>
                </g>
            </g>
        </g>
    </g>
</svg>